<?xml version="1.0" encoding="UTF-8" standalone="no"?>
<!DOCTYPE svg PUBLIC "-//W3C//DTD SVG 1.1//EN"
 "http://www.w3.org/Graphics/SVG/1.1/DTD/svg11.dtd">
<!-- Generated by graphviz version 2.47.3 (20210619.1520)
 -->
<!-- Title: dependencies Pages: 1 -->
<svg width="338pt" height="174pt"
 viewBox="0.00 0.00 338.00 173.80" xmlns="http://www.w3.org/2000/svg" xmlns:xlink="http://www.w3.org/1999/xlink">
<g id="graph0" class="graph" transform="scale(1 1) rotate(0) translate(4 169.8)">
<title>dependencies</title>
<polygon fill="white" stroke="transparent" points="-4,4 -4,-169.8 334,-169.8 334,4 -4,4"/>
<text text-anchor="middle" x="165" y="-8.2" font-family="sans-serif" font-size="14.00">dependencies</text>
<g id="clust1" class="cluster">
<title>cluster_WorkspaceQuizQuestionsModule</title>
<polygon fill="none" stroke="black" stroke-dasharray="1,5" points="8,-32.8 8,-157.8 322,-157.8 322,-32.8 8,-32.8"/>
</g>
<g id="clust6" class="cluster">
<title>cluster_WorkspaceQuizQuestionsModule_providers</title>
<polygon fill="none" stroke="black" points="16,-40.8 16,-92.8 314,-92.8 314,-40.8 16,-40.8"/>
</g>
<!-- WorkspaceQuizQuestionsService -->
<g id="node1" class="node">
<title>WorkspaceQuizQuestionsService</title>
<ellipse fill="#fdb462" stroke="black" cx="165" cy="-66.8" rx="140.63" ry="18"/>
<text text-anchor="middle" x="165" y="-62.6" font-family="Times,serif" font-size="14.00">WorkspaceQuizQuestionsService</text>
</g>
<!-- WorkspaceQuizQuestionsModule -->
<g id="node2" class="node">
<title>WorkspaceQuizQuestionsModule</title>
<polygon fill="#8dd3c7" stroke="black" points="267.72,-149.8 264.72,-153.8 243.72,-153.8 240.72,-149.8 62.28,-149.8 62.28,-113.8 267.72,-113.8 267.72,-149.8"/>
<text text-anchor="middle" x="165" y="-127.6" font-family="Times,serif" font-size="14.00">WorkspaceQuizQuestionsModule</text>
</g>
<!-- WorkspaceQuizQuestionsService&#45;&gt;WorkspaceQuizQuestionsModule -->
<g id="edge1" class="edge">
<title>WorkspaceQuizQuestionsService&#45;&gt;WorkspaceQuizQuestionsModule</title>
<path fill="none" stroke="black" d="M165,-84.91C165,-84.91 165,-103.79 165,-103.79"/>
<polygon fill="black" stroke="black" points="161.5,-103.79 165,-113.79 168.5,-103.79 161.5,-103.79"/>
</g>
</g>
</svg>
