<?xml version="1.0" encoding="UTF-8" standalone="no"?>
<!DOCTYPE svg PUBLIC "-//W3C//DTD SVG 1.1//EN"
 "http://www.w3.org/Graphics/SVG/1.1/DTD/svg11.dtd">
<!-- Generated by graphviz version 2.47.3 (20210619.1520)
 -->
<!-- Title: dependencies Pages: 1 -->
<svg width="244pt" height="174pt"
 viewBox="0.00 0.00 244.00 173.80" xmlns="http://www.w3.org/2000/svg" xmlns:xlink="http://www.w3.org/1999/xlink">
<g id="graph0" class="graph" transform="scale(1 1) rotate(0) translate(4 169.8)">
<title>dependencies</title>
<polygon fill="white" stroke="transparent" points="-4,4 -4,-169.8 240,-169.8 240,4 -4,4"/>
<text text-anchor="middle" x="118" y="-8.2" font-family="sans-serif" font-size="14.00">dependencies</text>
<g id="clust1" class="cluster">
<title>cluster_CombinationsModule</title>
<polygon fill="none" stroke="black" stroke-dasharray="1,5" points="8,-32.8 8,-157.8 228,-157.8 228,-32.8 8,-32.8"/>
</g>
<g id="clust6" class="cluster">
<title>cluster_CombinationsModule_providers</title>
<polygon fill="none" stroke="black" points="16,-40.8 16,-92.8 220,-92.8 220,-40.8 16,-40.8"/>
</g>
<!-- CombinationsService -->
<g id="node1" class="node">
<title>CombinationsService</title>
<ellipse fill="#fdb462" stroke="black" cx="118" cy="-66.8" rx="94.36" ry="18"/>
<text text-anchor="middle" x="118" y="-62.6" font-family="Times,serif" font-size="14.00">CombinationsService</text>
</g>
<!-- CombinationsModule -->
<g id="node2" class="node">
<title>CombinationsModule</title>
<polygon fill="#8dd3c7" stroke="black" points="187.11,-149.8 184.11,-153.8 163.11,-153.8 160.11,-149.8 48.89,-149.8 48.89,-113.8 187.11,-113.8 187.11,-149.8"/>
<text text-anchor="middle" x="118" y="-127.6" font-family="Times,serif" font-size="14.00">CombinationsModule</text>
</g>
<!-- CombinationsService&#45;&gt;CombinationsModule -->
<g id="edge1" class="edge">
<title>CombinationsService&#45;&gt;CombinationsModule</title>
<path fill="none" stroke="black" d="M118,-84.91C118,-84.91 118,-103.79 118,-103.79"/>
<polygon fill="black" stroke="black" points="114.5,-103.79 118,-113.79 121.5,-103.79 114.5,-103.79"/>
</g>
</g>
</svg>
