<?xml version="1.0" encoding="UTF-8" standalone="no"?>
<!DOCTYPE svg PUBLIC "-//W3C//DTD SVG 1.1//EN"
 "http://www.w3.org/Graphics/SVG/1.1/DTD/svg11.dtd">
<!-- Generated by graphviz version 2.47.3 (20210619.1520)
 -->
<!-- Title: dependencies Pages: 1 -->
<svg width="392pt" height="174pt"
 viewBox="0.00 0.00 392.00 173.80" xmlns="http://www.w3.org/2000/svg" xmlns:xlink="http://www.w3.org/1999/xlink">
<g id="graph0" class="graph" transform="scale(1 1) rotate(0) translate(4 169.8)">
<title>dependencies</title>
<polygon fill="white" stroke="transparent" points="-4,4 -4,-169.8 388,-169.8 388,4 -4,4"/>
<text text-anchor="middle" x="192" y="-8.2" font-family="sans-serif" font-size="14.00">dependencies</text>
<g id="clust1" class="cluster">
<title>cluster_WorkspaceQuizQuestionOptionsModule</title>
<polygon fill="none" stroke="black" stroke-dasharray="1,5" points="8,-32.8 8,-157.8 376,-157.8 376,-32.8 8,-32.8"/>
</g>
<g id="clust6" class="cluster">
<title>cluster_WorkspaceQuizQuestionOptionsModule_providers</title>
<polygon fill="none" stroke="black" points="16,-40.8 16,-92.8 368,-92.8 368,-40.8 16,-40.8"/>
</g>
<!-- WorkspaceQuizQuestionOptionsService -->
<g id="node1" class="node">
<title>WorkspaceQuizQuestionOptionsService</title>
<ellipse fill="#fdb462" stroke="black" cx="192" cy="-66.8" rx="167.78" ry="18"/>
<text text-anchor="middle" x="192" y="-62.6" font-family="Times,serif" font-size="14.00">WorkspaceQuizQuestionOptionsService</text>
</g>
<!-- WorkspaceQuizQuestionOptionsModule -->
<g id="node2" class="node">
<title>WorkspaceQuizQuestionOptionsModule</title>
<polygon fill="#8dd3c7" stroke="black" points="314.1,-149.8 311.1,-153.8 290.1,-153.8 287.1,-149.8 69.9,-149.8 69.9,-113.8 314.1,-113.8 314.1,-149.8"/>
<text text-anchor="middle" x="192" y="-127.6" font-family="Times,serif" font-size="14.00">WorkspaceQuizQuestionOptionsModule</text>
</g>
<!-- WorkspaceQuizQuestionOptionsService&#45;&gt;WorkspaceQuizQuestionOptionsModule -->
<g id="edge1" class="edge">
<title>WorkspaceQuizQuestionOptionsService&#45;&gt;WorkspaceQuizQuestionOptionsModule</title>
<path fill="none" stroke="black" d="M192,-84.91C192,-84.91 192,-103.79 192,-103.79"/>
<polygon fill="black" stroke="black" points="188.5,-103.79 192,-113.79 195.5,-103.79 188.5,-103.79"/>
</g>
</g>
</svg>
