<?xml version="1.0" encoding="UTF-8" standalone="no"?>
<!DOCTYPE svg PUBLIC "-//W3C//DTD SVG 1.1//EN"
 "http://www.w3.org/Graphics/SVG/1.1/DTD/svg11.dtd">
<!-- Generated by graphviz version 2.47.3 (20210619.1520)
 -->
<!-- Title: dependencies Pages: 1 -->
<svg width="2034pt" height="174pt"
 viewBox="0.00 0.00 2034.00 173.80" xmlns="http://www.w3.org/2000/svg" xmlns:xlink="http://www.w3.org/1999/xlink">
<g id="graph0" class="graph" transform="scale(1 1) rotate(0) translate(4 169.8)">
<title>dependencies</title>
<polygon fill="white" stroke="transparent" points="-4,4 -4,-169.8 2030,-169.8 2030,4 -4,4"/>
<text text-anchor="middle" x="1013" y="-8.2" font-family="sans-serif" font-size="14.00">dependencies</text>
<g id="clust1" class="cluster">
<title>cluster_AppModule</title>
<polygon fill="none" stroke="black" stroke-dasharray="1,5" points="8,-32.8 8,-157.8 2018,-157.8 2018,-32.8 8,-32.8"/>
</g>
<g id="clust3" class="cluster">
<title>cluster_AppModule_imports</title>
<polygon fill="none" stroke="black" points="154,-40.8 154,-92.8 2010,-92.8 2010,-40.8 154,-40.8"/>
</g>
<g id="clust6" class="cluster">
<title>cluster_AppModule_providers</title>
<polygon fill="none" stroke="black" points="16,-40.8 16,-92.8 146,-92.8 146,-40.8 16,-40.8"/>
</g>
<!-- AuthModule -->
<g id="node1" class="node">
<title>AuthModule</title>
<polygon fill="#8dd3c7" stroke="black" points="2001.55,-84.8 1998.55,-88.8 1977.55,-88.8 1974.55,-84.8 1914.45,-84.8 1914.45,-48.8 2001.55,-48.8 2001.55,-84.8"/>
<text text-anchor="middle" x="1958" y="-62.6" font-family="Times,serif" font-size="14.00">AuthModule</text>
</g>
<!-- AppModule -->
<g id="node13" class="node">
<title>AppModule</title>
<polygon fill="#8dd3c7" stroke="black" points="1211.66,-149.8 1208.66,-153.8 1187.66,-153.8 1184.66,-149.8 1128.34,-149.8 1128.34,-113.8 1211.66,-113.8 1211.66,-149.8"/>
<text text-anchor="middle" x="1170" y="-127.6" font-family="Times,serif" font-size="14.00">AppModule</text>
</g>
<!-- AuthModule&#45;&gt;AppModule -->
<g id="edge1" class="edge">
<title>AuthModule&#45;&gt;AppModule</title>
<path fill="none" stroke="black" d="M1958,-84.89C1958,-107.93 1958,-144.8 1958,-144.8 1958,-144.8 1221.81,-144.8 1221.81,-144.8"/>
<polygon fill="black" stroke="black" points="1221.81,-141.3 1211.81,-144.8 1221.81,-148.3 1221.81,-141.3"/>
</g>
<!-- CombinationsModule -->
<g id="node2" class="node">
<title>CombinationsModule</title>
<polygon fill="#8dd3c7" stroke="black" points="1896.11,-84.8 1893.11,-88.8 1872.11,-88.8 1869.11,-84.8 1757.89,-84.8 1757.89,-48.8 1896.11,-48.8 1896.11,-84.8"/>
<text text-anchor="middle" x="1827" y="-62.6" font-family="Times,serif" font-size="14.00">CombinationsModule</text>
</g>
<!-- CombinationsModule&#45;&gt;AppModule -->
<g id="edge2" class="edge">
<title>CombinationsModule&#45;&gt;AppModule</title>
<path fill="none" stroke="black" d="M1827,-84.84C1827,-106.46 1827,-139.8 1827,-139.8 1827,-139.8 1221.85,-139.8 1221.85,-139.8"/>
<polygon fill="black" stroke="black" points="1221.85,-136.3 1211.85,-139.8 1221.85,-143.3 1221.85,-136.3"/>
</g>
<!-- Level1Module -->
<g id="node3" class="node">
<title>Level1Module</title>
<polygon fill="#8dd3c7" stroke="black" points="1740.42,-84.8 1737.42,-88.8 1716.42,-88.8 1713.42,-84.8 1641.58,-84.8 1641.58,-48.8 1740.42,-48.8 1740.42,-84.8"/>
<text text-anchor="middle" x="1691" y="-62.6" font-family="Times,serif" font-size="14.00">Level1Module</text>
</g>
<!-- Level1Module&#45;&gt;AppModule -->
<g id="edge3" class="edge">
<title>Level1Module&#45;&gt;AppModule</title>
<path fill="none" stroke="black" d="M1691,-85.02C1691,-105.17 1691,-134.8 1691,-134.8 1691,-134.8 1221.75,-134.8 1221.75,-134.8"/>
<polygon fill="black" stroke="black" points="1221.75,-131.3 1211.75,-134.8 1221.75,-138.3 1221.75,-131.3"/>
</g>
<!-- Level2Module -->
<g id="node4" class="node">
<title>Level2Module</title>
<polygon fill="#8dd3c7" stroke="black" points="1624.42,-84.8 1621.42,-88.8 1600.42,-88.8 1597.42,-84.8 1525.58,-84.8 1525.58,-48.8 1624.42,-48.8 1624.42,-84.8"/>
<text text-anchor="middle" x="1575" y="-62.6" font-family="Times,serif" font-size="14.00">Level2Module</text>
</g>
<!-- Level2Module&#45;&gt;AppModule -->
<g id="edge4" class="edge">
<title>Level2Module&#45;&gt;AppModule</title>
<path fill="none" stroke="black" d="M1575,-85.02C1575,-103.63 1575,-129.8 1575,-129.8 1575,-129.8 1221.82,-129.8 1221.82,-129.8"/>
<polygon fill="black" stroke="black" points="1221.82,-126.3 1211.82,-129.8 1221.82,-133.3 1221.82,-126.3"/>
</g>
<!-- SubjectsModule -->
<g id="node5" class="node">
<title>SubjectsModule</title>
<polygon fill="#8dd3c7" stroke="black" points="1507.49,-84.8 1504.49,-88.8 1483.49,-88.8 1480.49,-84.8 1400.51,-84.8 1400.51,-48.8 1507.49,-48.8 1507.49,-84.8"/>
<text text-anchor="middle" x="1454" y="-62.6" font-family="Times,serif" font-size="14.00">SubjectsModule</text>
</g>
<!-- SubjectsModule&#45;&gt;AppModule -->
<g id="edge5" class="edge">
<title>SubjectsModule&#45;&gt;AppModule</title>
<path fill="none" stroke="black" d="M1454,-84.83C1454,-101.86 1454,-124.8 1454,-124.8 1454,-124.8 1221.91,-124.8 1221.91,-124.8"/>
<polygon fill="black" stroke="black" points="1221.91,-121.3 1211.91,-124.8 1221.91,-128.3 1221.91,-121.3"/>
</g>
<!-- TeacherSubjectModule -->
<g id="node6" class="node">
<title>TeacherSubjectModule</title>
<polygon fill="#8dd3c7" stroke="black" points="1382.11,-84.8 1379.11,-88.8 1358.11,-88.8 1355.11,-84.8 1235.89,-84.8 1235.89,-48.8 1382.11,-48.8 1382.11,-84.8"/>
<text text-anchor="middle" x="1309" y="-62.6" font-family="Times,serif" font-size="14.00">TeacherSubjectModule</text>
</g>
<!-- TeacherSubjectModule&#45;&gt;AppModule -->
<g id="edge6" class="edge">
<title>TeacherSubjectModule&#45;&gt;AppModule</title>
<path fill="none" stroke="black" d="M1309,-85.04C1309,-100.37 1309,-119.8 1309,-119.8 1309,-119.8 1221.7,-119.8 1221.7,-119.8"/>
<polygon fill="black" stroke="black" points="1221.7,-116.3 1211.7,-119.8 1221.7,-123.3 1221.7,-116.3"/>
</g>
<!-- TermsModule -->
<g id="node7" class="node">
<title>TermsModule</title>
<polygon fill="#8dd3c7" stroke="black" points="1217.81,-84.8 1214.81,-88.8 1193.81,-88.8 1190.81,-84.8 1122.19,-84.8 1122.19,-48.8 1217.81,-48.8 1217.81,-84.8"/>
<text text-anchor="middle" x="1170" y="-62.6" font-family="Times,serif" font-size="14.00">TermsModule</text>
</g>
<!-- TermsModule&#45;&gt;AppModule -->
<g id="edge7" class="edge">
<title>TermsModule&#45;&gt;AppModule</title>
<path fill="none" stroke="black" d="M1170,-84.91C1170,-84.91 1170,-103.79 1170,-103.79"/>
<polygon fill="black" stroke="black" points="1166.5,-103.79 1170,-113.79 1173.5,-103.79 1166.5,-103.79"/>
</g>
<!-- UserModule -->
<g id="node8" class="node">
<title>UserModule</title>
<polygon fill="#8dd3c7" stroke="black" points="1103.98,-84.8 1100.98,-88.8 1079.98,-88.8 1076.98,-84.8 1018.02,-84.8 1018.02,-48.8 1103.98,-48.8 1103.98,-84.8"/>
<text text-anchor="middle" x="1061" y="-62.6" font-family="Times,serif" font-size="14.00">UserModule</text>
</g>
<!-- UserModule&#45;&gt;AppModule -->
<g id="edge8" class="edge">
<title>UserModule&#45;&gt;AppModule</title>
<path fill="none" stroke="black" d="M1061,-85.04C1061,-100.37 1061,-119.8 1061,-119.8 1061,-119.8 1118.17,-119.8 1118.17,-119.8"/>
<polygon fill="black" stroke="black" points="1118.17,-123.3 1128.17,-119.8 1118.17,-116.3 1118.17,-123.3"/>
</g>
<!-- WorkspaceQuizQuestionOptionsModule -->
<g id="node9" class="node">
<title>WorkspaceQuizQuestionOptionsModule</title>
<polygon fill="#8dd3c7" stroke="black" points="1000.1,-84.8 997.1,-88.8 976.1,-88.8 973.1,-84.8 755.9,-84.8 755.9,-48.8 1000.1,-48.8 1000.1,-84.8"/>
<text text-anchor="middle" x="878" y="-62.6" font-family="Times,serif" font-size="14.00">WorkspaceQuizQuestionOptionsModule</text>
</g>
<!-- WorkspaceQuizQuestionOptionsModule&#45;&gt;AppModule -->
<g id="edge9" class="edge">
<title>WorkspaceQuizQuestionOptionsModule&#45;&gt;AppModule</title>
<path fill="none" stroke="black" d="M878,-84.83C878,-101.86 878,-124.8 878,-124.8 878,-124.8 1118.16,-124.8 1118.16,-124.8"/>
<polygon fill="black" stroke="black" points="1118.16,-128.3 1128.16,-124.8 1118.16,-121.3 1118.16,-128.3"/>
</g>
<!-- WorkspaceQuizQuestionsModule -->
<g id="node10" class="node">
<title>WorkspaceQuizQuestionsModule</title>
<polygon fill="#8dd3c7" stroke="black" points="737.72,-84.8 734.72,-88.8 713.72,-88.8 710.72,-84.8 532.28,-84.8 532.28,-48.8 737.72,-48.8 737.72,-84.8"/>
<text text-anchor="middle" x="635" y="-62.6" font-family="Times,serif" font-size="14.00">WorkspaceQuizQuestionsModule</text>
</g>
<!-- WorkspaceQuizQuestionsModule&#45;&gt;AppModule -->
<g id="edge10" class="edge">
<title>WorkspaceQuizQuestionsModule&#45;&gt;AppModule</title>
<path fill="none" stroke="black" d="M635,-85.02C635,-103.63 635,-129.8 635,-129.8 635,-129.8 1118.02,-129.8 1118.02,-129.8"/>
<polygon fill="black" stroke="black" points="1118.02,-133.3 1128.02,-129.8 1118.02,-126.3 1118.02,-133.3"/>
</g>
<!-- WorkspaceStudentResultsModule -->
<g id="node11" class="node">
<title>WorkspaceStudentResultsModule</title>
<polygon fill="#8dd3c7" stroke="black" points="514.01,-84.8 511.01,-88.8 490.01,-88.8 487.01,-84.8 307.99,-84.8 307.99,-48.8 514.01,-48.8 514.01,-84.8"/>
<text text-anchor="middle" x="411" y="-62.6" font-family="Times,serif" font-size="14.00">WorkspaceStudentResultsModule</text>
</g>
<!-- WorkspaceStudentResultsModule&#45;&gt;AppModule -->
<g id="edge11" class="edge">
<title>WorkspaceStudentResultsModule&#45;&gt;AppModule</title>
<path fill="none" stroke="black" d="M411,-85.02C411,-105.17 411,-134.8 411,-134.8 411,-134.8 1118.11,-134.8 1118.11,-134.8"/>
<polygon fill="black" stroke="black" points="1118.11,-138.3 1128.11,-134.8 1118.11,-131.3 1118.11,-138.3"/>
</g>
<!-- WorkspacesModule -->
<g id="node12" class="node">
<title>WorkspacesModule</title>
<polygon fill="#8dd3c7" stroke="black" points="289.96,-84.8 286.96,-88.8 265.96,-88.8 262.96,-84.8 162.04,-84.8 162.04,-48.8 289.96,-48.8 289.96,-84.8"/>
<text text-anchor="middle" x="226" y="-62.6" font-family="Times,serif" font-size="14.00">WorkspacesModule</text>
</g>
<!-- WorkspacesModule&#45;&gt;AppModule -->
<g id="edge12" class="edge">
<title>WorkspacesModule&#45;&gt;AppModule</title>
<path fill="none" stroke="black" d="M226,-84.84C226,-106.46 226,-139.8 226,-139.8 226,-139.8 1118.22,-139.8 1118.22,-139.8"/>
<polygon fill="black" stroke="black" points="1118.22,-143.3 1128.22,-139.8 1118.22,-136.3 1118.22,-143.3"/>
</g>
<!-- AppService -->
<g id="node14" class="node">
<title>AppService</title>
<ellipse fill="#fdb462" stroke="black" cx="81" cy="-66.8" rx="56.74" ry="18"/>
<text text-anchor="middle" x="81" y="-62.6" font-family="Times,serif" font-size="14.00">AppService</text>
</g>
<!-- AppService&#45;&gt;AppModule -->
<g id="edge13" class="edge">
<title>AppService&#45;&gt;AppModule</title>
<path fill="none" stroke="black" d="M81,-84.89C81,-107.93 81,-144.8 81,-144.8 81,-144.8 1118.31,-144.8 1118.31,-144.8"/>
<polygon fill="black" stroke="black" points="1118.31,-148.3 1128.31,-144.8 1118.31,-141.3 1118.31,-148.3"/>
</g>
</g>
</svg>
