<?xml version="1.0" encoding="UTF-8" standalone="no"?>
<!DOCTYPE svg PUBLIC "-//W3C//DTD SVG 1.1//EN"
 "http://www.w3.org/Graphics/SVG/1.1/DTD/svg11.dtd">
<!-- Generated by graphviz version 2.47.3 (20210619.1520)
 -->
<!-- Title: dependencies Pages: 1 -->
<svg width="3109pt" height="334pt"
 viewBox="0.00 0.00 3109.00 333.80" xmlns="http://www.w3.org/2000/svg" xmlns:xlink="http://www.w3.org/1999/xlink">
<g id="graph0" class="graph" transform="scale(1 1) rotate(0) translate(4 329.8)">
<title>dependencies</title>
<polygon fill="white" stroke="transparent" points="-4,4 -4,-329.8 3105,-329.8 3105,4 -4,4"/>
<text text-anchor="middle" x="1550.5" y="-8.2" font-family="sans-serif" font-size="14.00">dependencies</text>
<g id="clust1" class="cluster">
<title>cluster_AppModule</title>
<polygon fill="none" stroke="black" stroke-dasharray="1,5" points="443,-108.8 443,-241.8 2349,-241.8 2349,-108.8 443,-108.8"/>
</g>
<g id="clust3" class="cluster">
<title>cluster_AppModule_imports</title>
<polygon fill="none" stroke="black" points="589,-116.8 589,-233.8 2341,-233.8 2341,-116.8 589,-116.8"/>
</g>
<g id="clust6" class="cluster">
<title>cluster_AppModule_providers</title>
<polygon fill="none" stroke="black" points="451,-116.8 451,-168.8 581,-168.8 581,-116.8 451,-116.8"/>
</g>
<g id="clust7" class="cluster">
<title>cluster_AuthModule</title>
<polygon fill="none" stroke="black" stroke-dasharray="1,5" points="2414,-32.8 2414,-100.8 3093,-100.8 3093,-32.8 2414,-32.8"/>
</g>
<g id="clust10" class="cluster">
<title>cluster_AuthModule_exports</title>
<polygon fill="none" stroke="black" points="2422,-40.8 2422,-92.8 2528,-92.8 2528,-40.8 2422,-40.8"/>
</g>
<g id="clust12" class="cluster">
<title>cluster_AuthModule_providers</title>
<polygon fill="none" stroke="black" points="2536,-40.8 2536,-92.8 3085,-92.8 3085,-40.8 2536,-40.8"/>
</g>
<g id="clust13" class="cluster">
<title>cluster_CombinationsModule</title>
<polygon fill="none" stroke="black" stroke-dasharray="1,5" points="8,-32.8 8,-100.8 228,-100.8 228,-32.8 8,-32.8"/>
</g>
<g id="clust18" class="cluster">
<title>cluster_CombinationsModule_providers</title>
<polygon fill="none" stroke="black" points="16,-40.8 16,-92.8 220,-92.8 220,-40.8 16,-40.8"/>
</g>
<g id="clust19" class="cluster">
<title>cluster_Level1Module</title>
<polygon fill="none" stroke="black" stroke-dasharray="1,5" points="236,-32.8 236,-100.8 402,-100.8 402,-32.8 236,-32.8"/>
</g>
<g id="clust24" class="cluster">
<title>cluster_Level1Module_providers</title>
<polygon fill="none" stroke="black" points="244,-40.8 244,-92.8 394,-92.8 394,-40.8 244,-40.8"/>
</g>
<g id="clust25" class="cluster">
<title>cluster_Level2Module</title>
<polygon fill="none" stroke="black" stroke-dasharray="1,5" points="410,-32.8 410,-100.8 576,-100.8 576,-32.8 410,-32.8"/>
</g>
<g id="clust30" class="cluster">
<title>cluster_Level2Module_providers</title>
<polygon fill="none" stroke="black" points="418,-40.8 418,-92.8 568,-92.8 568,-40.8 418,-40.8"/>
</g>
<g id="clust31" class="cluster">
<title>cluster_SubjectsModule</title>
<polygon fill="none" stroke="black" stroke-dasharray="1,5" points="584,-32.8 584,-100.8 762,-100.8 762,-32.8 584,-32.8"/>
</g>
<g id="clust36" class="cluster">
<title>cluster_SubjectsModule_providers</title>
<polygon fill="none" stroke="black" points="592,-40.8 592,-92.8 754,-92.8 754,-40.8 592,-40.8"/>
</g>
<g id="clust37" class="cluster">
<title>cluster_TeacherSubjectModule</title>
<polygon fill="none" stroke="black" stroke-dasharray="1,5" points="770,-32.8 770,-100.8 1002,-100.8 1002,-32.8 770,-32.8"/>
</g>
<g id="clust42" class="cluster">
<title>cluster_TeacherSubjectModule_providers</title>
<polygon fill="none" stroke="black" points="778,-40.8 778,-92.8 994,-92.8 994,-40.8 778,-40.8"/>
</g>
<g id="clust43" class="cluster">
<title>cluster_TermsModule</title>
<polygon fill="none" stroke="black" stroke-dasharray="1,5" points="1010,-32.8 1010,-100.8 1172,-100.8 1172,-32.8 1010,-32.8"/>
</g>
<g id="clust48" class="cluster">
<title>cluster_TermsModule_providers</title>
<polygon fill="none" stroke="black" points="1018,-40.8 1018,-92.8 1164,-92.8 1164,-40.8 1018,-40.8"/>
</g>
<g id="clust49" class="cluster">
<title>cluster_UserModule</title>
<polygon fill="none" stroke="black" stroke-dasharray="1,5" points="2229,-249.8 2229,-317.8 2349,-317.8 2349,-249.8 2229,-249.8"/>
</g>
<g id="clust52" class="cluster">
<title>cluster_UserModule_exports</title>
<polygon fill="none" stroke="black" points="2237,-257.8 2237,-309.8 2341,-309.8 2341,-257.8 2237,-257.8"/>
</g>
<g id="clust55" class="cluster">
<title>cluster_WorkspaceQuizQuestionOptionsModule</title>
<polygon fill="none" stroke="black" stroke-dasharray="1,5" points="1180,-32.8 1180,-100.8 1548,-100.8 1548,-32.8 1180,-32.8"/>
</g>
<g id="clust60" class="cluster">
<title>cluster_WorkspaceQuizQuestionOptionsModule_providers</title>
<polygon fill="none" stroke="black" points="1188,-40.8 1188,-92.8 1540,-92.8 1540,-40.8 1188,-40.8"/>
</g>
<g id="clust61" class="cluster">
<title>cluster_WorkspaceQuizQuestionsModule</title>
<polygon fill="none" stroke="black" stroke-dasharray="1,5" points="1556,-32.8 1556,-100.8 1870,-100.8 1870,-32.8 1556,-32.8"/>
</g>
<g id="clust66" class="cluster">
<title>cluster_WorkspaceQuizQuestionsModule_providers</title>
<polygon fill="none" stroke="black" points="1564,-40.8 1564,-92.8 1862,-92.8 1862,-40.8 1564,-40.8"/>
</g>
<g id="clust67" class="cluster">
<title>cluster_WorkspacesModule</title>
<polygon fill="none" stroke="black" stroke-dasharray="1,5" points="1878,-32.8 1878,-100.8 2084,-100.8 2084,-32.8 1878,-32.8"/>
</g>
<g id="clust72" class="cluster">
<title>cluster_WorkspacesModule_providers</title>
<polygon fill="none" stroke="black" points="1886,-40.8 1886,-92.8 2076,-92.8 2076,-40.8 1886,-40.8"/>
</g>
<g id="clust73" class="cluster">
<title>cluster_WorkspaceStudentResultsModule</title>
<polygon fill="none" stroke="black" stroke-dasharray="1,5" points="2092,-32.8 2092,-100.8 2406,-100.8 2406,-32.8 2092,-32.8"/>
</g>
<g id="clust78" class="cluster">
<title>cluster_WorkspaceStudentResultsModule_providers</title>
<polygon fill="none" stroke="black" points="2100,-40.8 2100,-92.8 2398,-92.8 2398,-40.8 2100,-40.8"/>
</g>
<!-- AuthModule -->
<g id="node1" class="node">
<title>AuthModule</title>
<polygon fill="#8dd3c7" stroke="black" points="2332.55,-160.8 2329.55,-164.8 2308.55,-164.8 2305.55,-160.8 2245.45,-160.8 2245.45,-124.8 2332.55,-124.8 2332.55,-160.8"/>
<text text-anchor="middle" x="2289" y="-138.6" font-family="Times,serif" font-size="14.00">AuthModule</text>
</g>
<!-- UserModule -->
<g id="node8" class="node">
<title>UserModule</title>
<polygon fill="#8dd3c7" stroke="black" points="2331.98,-225.8 2328.98,-229.8 2307.98,-229.8 2304.98,-225.8 2246.02,-225.8 2246.02,-189.8 2331.98,-189.8 2331.98,-225.8"/>
<text text-anchor="middle" x="2289" y="-203.6" font-family="Times,serif" font-size="14.00">UserModule</text>
</g>
<!-- AuthModule&#45;&gt;UserModule -->
<g id="edge25" class="edge">
<title>AuthModule&#45;&gt;UserModule</title>
<path fill="none" stroke="black" d="M2289,-160.91C2289,-160.91 2289,-179.79 2289,-179.79"/>
<polygon fill="black" stroke="black" points="2285.5,-179.79 2289,-189.79 2292.5,-179.79 2285.5,-179.79"/>
</g>
<!-- AppModule -->
<g id="node13" class="node">
<title>AppModule</title>
<polygon fill="#8dd3c7" stroke="black" points="580.66,-225.8 577.66,-229.8 556.66,-229.8 553.66,-225.8 497.34,-225.8 497.34,-189.8 580.66,-189.8 580.66,-225.8"/>
<text text-anchor="middle" x="539" y="-203.6" font-family="Times,serif" font-size="14.00">AppModule</text>
</g>
<!-- AuthModule&#45;&gt;AppModule -->
<g id="edge1" class="edge">
<title>AuthModule&#45;&gt;AppModule</title>
<path fill="none" stroke="black" d="M2245.36,-142.8C2239.88,-142.8 2236.15,-142.8 2236.15,-142.8 2236.15,-142.8 2236.15,-219.8 2236.15,-219.8 2236.15,-219.8 590.95,-219.8 590.95,-219.8"/>
<polygon fill="black" stroke="black" points="590.95,-216.3 580.95,-219.8 590.95,-223.3 590.95,-216.3"/>
</g>
<!-- AuthService  -->
<g id="node15" class="node">
<title>AuthService </title>
<polygon fill="#fb8072" stroke="black" points="2519.98,-84.8 2430.02,-84.8 2430.02,-48.8 2519.98,-48.8 2519.98,-84.8"/>
<text text-anchor="middle" x="2475" y="-62.6" font-family="Times,serif" font-size="14.00">AuthService </text>
</g>
<!-- AuthModule&#45;&gt;AuthService  -->
<g id="edge14" class="edge">
<title>AuthModule&#45;&gt;AuthService </title>
<path fill="none" stroke="black" stroke-dasharray="5,2" d="M2332.61,-130.8C2387.58,-130.8 2475,-130.8 2475,-130.8 2475,-130.8 2475,-94.97 2475,-94.97"/>
<polygon fill="black" stroke="black" points="2478.5,-94.97 2475,-84.97 2471.5,-94.97 2478.5,-94.97"/>
</g>
<!-- CombinationsModule -->
<g id="node2" class="node">
<title>CombinationsModule</title>
<polygon fill="#8dd3c7" stroke="black" points="735.11,-160.8 732.11,-164.8 711.11,-164.8 708.11,-160.8 596.89,-160.8 596.89,-124.8 735.11,-124.8 735.11,-160.8"/>
<text text-anchor="middle" x="666" y="-138.6" font-family="Times,serif" font-size="14.00">CombinationsModule</text>
</g>
<!-- CombinationsModule&#45;&gt;AppModule -->
<g id="edge2" class="edge">
<title>CombinationsModule&#45;&gt;AppModule</title>
<path fill="none" stroke="black" d="M596.54,-142.8C585.01,-142.8 576.72,-142.8 576.72,-142.8 576.72,-142.8 576.72,-179.69 576.72,-179.69"/>
<polygon fill="black" stroke="black" points="573.22,-179.69 576.72,-189.69 580.22,-179.69 573.22,-179.69"/>
</g>
<!-- Level1Module -->
<g id="node3" class="node">
<title>Level1Module</title>
<polygon fill="#8dd3c7" stroke="black" points="851.42,-160.8 848.42,-164.8 827.42,-164.8 824.42,-160.8 752.58,-160.8 752.58,-124.8 851.42,-124.8 851.42,-160.8"/>
<text text-anchor="middle" x="802" y="-138.6" font-family="Times,serif" font-size="14.00">Level1Module</text>
</g>
<!-- Level1Module&#45;&gt;AppModule -->
<g id="edge3" class="edge">
<title>Level1Module&#45;&gt;AppModule</title>
<path fill="none" stroke="black" d="M802,-160.85C802,-175.17 802,-192.8 802,-192.8 802,-192.8 590.67,-192.8 590.67,-192.8"/>
<polygon fill="black" stroke="black" points="590.67,-189.3 580.67,-192.8 590.67,-196.3 590.67,-189.3"/>
</g>
<!-- Level2Module -->
<g id="node4" class="node">
<title>Level2Module</title>
<polygon fill="#8dd3c7" stroke="black" points="967.42,-160.8 964.42,-164.8 943.42,-164.8 940.42,-160.8 868.58,-160.8 868.58,-124.8 967.42,-124.8 967.42,-160.8"/>
<text text-anchor="middle" x="918" y="-138.6" font-family="Times,serif" font-size="14.00">Level2Module</text>
</g>
<!-- Level2Module&#45;&gt;AppModule -->
<g id="edge4" class="edge">
<title>Level2Module&#45;&gt;AppModule</title>
<path fill="none" stroke="black" d="M918,-161.04C918,-176.37 918,-195.8 918,-195.8 918,-195.8 591.01,-195.8 591.01,-195.8"/>
<polygon fill="black" stroke="black" points="591.01,-192.3 581.01,-195.8 591.01,-199.3 591.01,-192.3"/>
</g>
<!-- SubjectsModule -->
<g id="node5" class="node">
<title>SubjectsModule</title>
<polygon fill="#8dd3c7" stroke="black" points="1092.49,-160.8 1089.49,-164.8 1068.49,-164.8 1065.49,-160.8 985.51,-160.8 985.51,-124.8 1092.49,-124.8 1092.49,-160.8"/>
<text text-anchor="middle" x="1039" y="-138.6" font-family="Times,serif" font-size="14.00">SubjectsModule</text>
</g>
<!-- SubjectsModule&#45;&gt;AppModule -->
<g id="edge5" class="edge">
<title>SubjectsModule&#45;&gt;AppModule</title>
<path fill="none" stroke="black" d="M1039,-160.83C1039,-177.2 1039,-198.8 1039,-198.8 1039,-198.8 590.77,-198.8 590.77,-198.8"/>
<polygon fill="black" stroke="black" points="590.77,-195.3 580.77,-198.8 590.77,-202.3 590.77,-195.3"/>
</g>
<!-- TeacherSubjectModule -->
<g id="node6" class="node">
<title>TeacherSubjectModule</title>
<polygon fill="#8dd3c7" stroke="black" points="1257.11,-160.8 1254.11,-164.8 1233.11,-164.8 1230.11,-160.8 1110.89,-160.8 1110.89,-124.8 1257.11,-124.8 1257.11,-160.8"/>
<text text-anchor="middle" x="1184" y="-138.6" font-family="Times,serif" font-size="14.00">TeacherSubjectModule</text>
</g>
<!-- TeacherSubjectModule&#45;&gt;AppModule -->
<g id="edge6" class="edge">
<title>TeacherSubjectModule&#45;&gt;AppModule</title>
<path fill="none" stroke="black" d="M1184,-160.82C1184,-178.17 1184,-201.8 1184,-201.8 1184,-201.8 590.82,-201.8 590.82,-201.8"/>
<polygon fill="black" stroke="black" points="590.82,-198.3 580.82,-201.8 590.82,-205.3 590.82,-198.3"/>
</g>
<!-- TermsModule -->
<g id="node7" class="node">
<title>TermsModule</title>
<polygon fill="#8dd3c7" stroke="black" points="1370.81,-160.8 1367.81,-164.8 1346.81,-164.8 1343.81,-160.8 1275.19,-160.8 1275.19,-124.8 1370.81,-124.8 1370.81,-160.8"/>
<text text-anchor="middle" x="1323" y="-138.6" font-family="Times,serif" font-size="14.00">TermsModule</text>
</g>
<!-- TermsModule&#45;&gt;AppModule -->
<g id="edge7" class="edge">
<title>TermsModule&#45;&gt;AppModule</title>
<path fill="none" stroke="black" d="M1323,-161.07C1323,-179.36 1323,-204.8 1323,-204.8 1323,-204.8 590.87,-204.8 590.87,-204.8"/>
<polygon fill="black" stroke="black" points="590.87,-201.3 580.87,-204.8 590.87,-208.3 590.87,-201.3"/>
</g>
<!-- UserModule&#45;&gt;AppModule -->
<g id="edge8" class="edge">
<title>UserModule&#45;&gt;AppModule</title>
<path fill="none" stroke="black" d="M2245.74,-222.8C2245.74,-222.8 590.75,-222.8 590.75,-222.8"/>
<polygon fill="black" stroke="black" points="590.75,-219.3 580.75,-222.8 590.75,-226.3 590.75,-219.3"/>
</g>
<!-- UserService  -->
<g id="node26" class="node">
<title>UserService </title>
<polygon fill="#fb8072" stroke="black" points="2332.9,-301.8 2245.1,-301.8 2245.1,-265.8 2332.9,-265.8 2332.9,-301.8"/>
<text text-anchor="middle" x="2289" y="-279.6" font-family="Times,serif" font-size="14.00">UserService </text>
</g>
<!-- UserModule&#45;&gt;UserService  -->
<g id="edge26" class="edge">
<title>UserModule&#45;&gt;UserService </title>
<path fill="none" stroke="black" stroke-dasharray="5,2" d="M2289,-225.81C2289,-225.81 2289,-255.65 2289,-255.65"/>
<polygon fill="black" stroke="black" points="2285.5,-255.65 2289,-265.65 2292.5,-255.65 2285.5,-255.65"/>
</g>
<!-- WorkspaceQuizQuestionOptionsModule -->
<g id="node9" class="node">
<title>WorkspaceQuizQuestionOptionsModule</title>
<polygon fill="#8dd3c7" stroke="black" points="1633.1,-160.8 1630.1,-164.8 1609.1,-164.8 1606.1,-160.8 1388.9,-160.8 1388.9,-124.8 1633.1,-124.8 1633.1,-160.8"/>
<text text-anchor="middle" x="1511" y="-138.6" font-family="Times,serif" font-size="14.00">WorkspaceQuizQuestionOptionsModule</text>
</g>
<!-- WorkspaceQuizQuestionOptionsModule&#45;&gt;AppModule -->
<g id="edge9" class="edge">
<title>WorkspaceQuizQuestionOptionsModule&#45;&gt;AppModule</title>
<path fill="none" stroke="black" d="M1511,-160.91C1511,-180.14 1511,-207.8 1511,-207.8 1511,-207.8 590.77,-207.8 590.77,-207.8"/>
<polygon fill="black" stroke="black" points="590.77,-204.3 580.77,-207.8 590.77,-211.3 590.77,-204.3"/>
</g>
<!-- WorkspaceQuizQuestionsModule -->
<g id="node10" class="node">
<title>WorkspaceQuizQuestionsModule</title>
<polygon fill="#8dd3c7" stroke="black" points="1856.72,-160.8 1853.72,-164.8 1832.72,-164.8 1829.72,-160.8 1651.28,-160.8 1651.28,-124.8 1856.72,-124.8 1856.72,-160.8"/>
<text text-anchor="middle" x="1754" y="-138.6" font-family="Times,serif" font-size="14.00">WorkspaceQuizQuestionsModule</text>
</g>
<!-- WorkspaceQuizQuestionsModule&#45;&gt;AppModule -->
<g id="edge10" class="edge">
<title>WorkspaceQuizQuestionsModule&#45;&gt;AppModule</title>
<path fill="none" stroke="black" d="M1754,-161.02C1754,-181.17 1754,-210.8 1754,-210.8 1754,-210.8 590.82,-210.8 590.82,-210.8"/>
<polygon fill="black" stroke="black" points="590.82,-207.3 580.82,-210.8 590.82,-214.3 590.82,-207.3"/>
</g>
<!-- WorkspaceStudentResultsModule -->
<g id="node11" class="node">
<title>WorkspaceStudentResultsModule</title>
<polygon fill="#8dd3c7" stroke="black" points="2227.01,-160.8 2224.01,-164.8 2203.01,-164.8 2200.01,-160.8 2020.99,-160.8 2020.99,-124.8 2227.01,-124.8 2227.01,-160.8"/>
<text text-anchor="middle" x="2124" y="-138.6" font-family="Times,serif" font-size="14.00">WorkspaceStudentResultsModule</text>
</g>
<!-- WorkspaceStudentResultsModule&#45;&gt;AppModule -->
<g id="edge11" class="edge">
<title>WorkspaceStudentResultsModule&#45;&gt;AppModule</title>
<path fill="none" stroke="black" d="M2124,-161.09C2124,-183.01 2124,-216.8 2124,-216.8 2124,-216.8 590.99,-216.8 590.99,-216.8"/>
<polygon fill="black" stroke="black" points="590.99,-213.3 580.99,-216.8 590.99,-220.3 590.99,-213.3"/>
</g>
<!-- WorkspacesModule -->
<g id="node12" class="node">
<title>WorkspacesModule</title>
<polygon fill="#8dd3c7" stroke="black" points="2002.96,-160.8 1999.96,-164.8 1978.96,-164.8 1975.96,-160.8 1875.04,-160.8 1875.04,-124.8 2002.96,-124.8 2002.96,-160.8"/>
<text text-anchor="middle" x="1939" y="-138.6" font-family="Times,serif" font-size="14.00">WorkspacesModule</text>
</g>
<!-- WorkspacesModule&#45;&gt;AppModule -->
<g id="edge12" class="edge">
<title>WorkspacesModule&#45;&gt;AppModule</title>
<path fill="none" stroke="black" d="M1939,-161.08C1939,-182.12 1939,-213.8 1939,-213.8 1939,-213.8 590.9,-213.8 590.9,-213.8"/>
<polygon fill="black" stroke="black" points="590.9,-210.3 580.9,-213.8 590.9,-217.3 590.9,-210.3"/>
</g>
<!-- AppService -->
<g id="node14" class="node">
<title>AppService</title>
<ellipse fill="#fdb462" stroke="black" cx="516" cy="-142.8" rx="56.74" ry="18"/>
<text text-anchor="middle" x="516" y="-138.6" font-family="Times,serif" font-size="14.00">AppService</text>
</g>
<!-- AppService&#45;&gt;AppModule -->
<g id="edge13" class="edge">
<title>AppService&#45;&gt;AppModule</title>
<path fill="none" stroke="black" d="M534.9,-159.88C534.9,-159.88 534.9,-179.7 534.9,-179.7"/>
<polygon fill="black" stroke="black" points="531.4,-179.7 534.9,-189.7 538.4,-179.7 531.4,-179.7"/>
</g>
<!-- AuthService -->
<g id="node16" class="node">
<title>AuthService</title>
<ellipse fill="#fdb462" stroke="black" cx="2883" cy="-66.8" rx="59.11" ry="18"/>
<text text-anchor="middle" x="2883" y="-62.6" font-family="Times,serif" font-size="14.00">AuthService</text>
</g>
<!-- AuthService&#45;&gt;AuthModule -->
<g id="edge15" class="edge">
<title>AuthService&#45;&gt;AuthModule</title>
<path fill="none" stroke="black" d="M2883,-85C2883,-109.16 2883,-148.8 2883,-148.8 2883,-148.8 2342.68,-148.8 2342.68,-148.8"/>
<polygon fill="black" stroke="black" points="2342.68,-145.3 2332.68,-148.8 2342.68,-152.3 2342.68,-145.3"/>
</g>
<!-- JwtStrategy -->
<g id="node17" class="node">
<title>JwtStrategy</title>
<ellipse fill="#fdb462" stroke="black" cx="2749" cy="-66.8" rx="56.76" ry="18"/>
<text text-anchor="middle" x="2749" y="-62.6" font-family="Times,serif" font-size="14.00">JwtStrategy</text>
</g>
<!-- JwtStrategy&#45;&gt;AuthModule -->
<g id="edge16" class="edge">
<title>JwtStrategy&#45;&gt;AuthModule</title>
<path fill="none" stroke="black" d="M2749,-84.81C2749,-107.29 2749,-142.8 2749,-142.8 2749,-142.8 2342.69,-142.8 2342.69,-142.8"/>
<polygon fill="black" stroke="black" points="2342.69,-139.3 2332.69,-142.8 2342.69,-146.3 2342.69,-139.3"/>
</g>
<!-- LocalStrategy -->
<g id="node18" class="node">
<title>LocalStrategy</title>
<ellipse fill="#fdb462" stroke="black" cx="2609" cy="-66.8" rx="65.41" ry="18"/>
<text text-anchor="middle" x="2609" y="-62.6" font-family="Times,serif" font-size="14.00">LocalStrategy</text>
</g>
<!-- LocalStrategy&#45;&gt;AuthModule -->
<g id="edge17" class="edge">
<title>LocalStrategy&#45;&gt;AuthModule</title>
<path fill="none" stroke="black" d="M2609,-84.83C2609,-105.57 2609,-136.8 2609,-136.8 2609,-136.8 2342.82,-136.8 2342.82,-136.8"/>
<polygon fill="black" stroke="black" points="2342.82,-133.3 2332.82,-136.8 2342.82,-140.3 2342.82,-133.3"/>
</g>
<!-- UserService -->
<g id="node19" class="node">
<title>UserService</title>
<ellipse fill="#fdb462" stroke="black" cx="3019" cy="-66.8" rx="58.44" ry="18"/>
<text text-anchor="middle" x="3019" y="-62.6" font-family="Times,serif" font-size="14.00">UserService</text>
</g>
<!-- UserService&#45;&gt;AuthModule -->
<g id="edge18" class="edge">
<title>UserService&#45;&gt;AuthModule</title>
<path fill="none" stroke="black" d="M2999.59,-84.19C2999.59,-109.83 2999.59,-154.8 2999.59,-154.8 2999.59,-154.8 2342.65,-154.8 2342.65,-154.8"/>
<polygon fill="black" stroke="black" points="2342.65,-151.3 2332.65,-154.8 2342.65,-158.3 2342.65,-151.3"/>
</g>
<!-- UserService&#45;&gt;UserModule -->
<g id="edge27" class="edge">
<title>UserService&#45;&gt;UserModule</title>
<path fill="none" stroke="black" d="M3038.41,-83.81C3038.41,-121.31 3038.41,-207.8 3038.41,-207.8 3038.41,-207.8 2341.98,-207.8 2341.98,-207.8"/>
<polygon fill="black" stroke="black" points="2341.98,-204.3 2331.98,-207.8 2341.98,-211.3 2341.98,-204.3"/>
</g>
<!-- CombinationsService -->
<g id="node20" class="node">
<title>CombinationsService</title>
<ellipse fill="#fdb462" stroke="black" cx="118" cy="-66.8" rx="94.36" ry="18"/>
<text text-anchor="middle" x="118" y="-62.6" font-family="Times,serif" font-size="14.00">CombinationsService</text>
</g>
<!-- CombinationsService&#45;&gt;CombinationsModule -->
<g id="edge19" class="edge">
<title>CombinationsService&#45;&gt;CombinationsModule</title>
<path fill="none" stroke="black" d="M118,-85.04C118,-100.37 118,-119.8 118,-119.8 118,-119.8 667.67,-119.8 667.67,-119.8 667.67,-119.8 667.67,-120.29 667.67,-120.29"/>
<polygon fill="black" stroke="black" points="664.17,-114.68 667.67,-124.68 671.17,-114.68 664.17,-114.68"/>
</g>
<!-- Level1Service -->
<g id="node21" class="node">
<title>Level1Service</title>
<ellipse fill="#fdb462" stroke="black" cx="319" cy="-66.8" rx="66.61" ry="18"/>
<text text-anchor="middle" x="319" y="-62.6" font-family="Times,serif" font-size="14.00">Level1Service</text>
</g>
<!-- Level1Service&#45;&gt;Level1Module -->
<g id="edge20" class="edge">
<title>Level1Service&#45;&gt;Level1Module</title>
<path fill="none" stroke="black" d="M319,-84.84C319,-98.09 319,-113.8 319,-113.8 319,-113.8 769.37,-113.8 769.37,-113.8 769.37,-113.8 769.37,-114.88 769.37,-114.88"/>
<polygon fill="black" stroke="black" points="765.87,-114.6 769.37,-124.6 772.87,-114.6 765.87,-114.6"/>
</g>
<!-- Level2Service -->
<g id="node22" class="node">
<title>Level2Service</title>
<ellipse fill="#fdb462" stroke="black" cx="493" cy="-66.8" rx="66.61" ry="18"/>
<text text-anchor="middle" x="493" y="-62.6" font-family="Times,serif" font-size="14.00">Level2Service</text>
</g>
<!-- Level2Service&#45;&gt;Level2Module -->
<g id="edge21" class="edge">
<title>Level2Service&#45;&gt;Level2Module</title>
<path fill="none" stroke="black" d="M509.59,-84.43C509.59,-95.54 509.59,-107.8 509.59,-107.8 509.59,-107.8 918,-107.8 918,-107.8 918,-107.8 918,-114.48 918,-114.48"/>
<polygon fill="black" stroke="black" points="914.5,-114.48 918,-124.48 921.5,-114.48 914.5,-114.48"/>
</g>
<!-- SubjectsService -->
<g id="node23" class="node">
<title>SubjectsService</title>
<ellipse fill="#fdb462" stroke="black" cx="673" cy="-66.8" rx="72.93" ry="18"/>
<text text-anchor="middle" x="673" y="-62.6" font-family="Times,serif" font-size="14.00">SubjectsService</text>
</g>
<!-- SubjectsService&#45;&gt;SubjectsModule -->
<g id="edge22" class="edge">
<title>SubjectsService&#45;&gt;SubjectsModule</title>
<path fill="none" stroke="black" d="M740.38,-73.74C740.38,-84.2 740.38,-102.8 740.38,-102.8 740.38,-102.8 1006.19,-102.8 1006.19,-102.8 1006.19,-102.8 1006.19,-114.67 1006.19,-114.67"/>
<polygon fill="black" stroke="black" points="1002.69,-114.67 1006.19,-124.67 1009.69,-114.67 1002.69,-114.67"/>
</g>
<!-- TeacherSubjectService -->
<g id="node24" class="node">
<title>TeacherSubjectService</title>
<ellipse fill="#fdb462" stroke="black" cx="886" cy="-66.8" rx="100.09" ry="18"/>
<text text-anchor="middle" x="886" y="-62.6" font-family="Times,serif" font-size="14.00">TeacherSubjectService</text>
</g>
<!-- TeacherSubjectService&#45;&gt;TeacherSubjectModule -->
<g id="edge23" class="edge">
<title>TeacherSubjectService&#45;&gt;TeacherSubjectModule</title>
<path fill="none" stroke="black" d="M976.36,-74.68C976.36,-83.57 976.36,-96.8 976.36,-96.8 976.36,-96.8 1125.68,-96.8 1125.68,-96.8 1125.68,-96.8 1125.68,-114.62 1125.68,-114.62"/>
<polygon fill="black" stroke="black" points="1122.18,-114.62 1125.68,-124.62 1129.18,-114.62 1122.18,-114.62"/>
</g>
<!-- TermsService -->
<g id="node25" class="node">
<title>TermsService</title>
<ellipse fill="#fdb462" stroke="black" cx="1091" cy="-66.8" rx="64.82" ry="18"/>
<text text-anchor="middle" x="1091" y="-62.6" font-family="Times,serif" font-size="14.00">TermsService</text>
</g>
<!-- TermsService&#45;&gt;TermsModule -->
<g id="edge24" class="edge">
<title>TermsService&#45;&gt;TermsModule</title>
<path fill="none" stroke="black" d="M1140.67,-78.52C1140.67,-84.61 1140.67,-90.8 1140.67,-90.8 1140.67,-90.8 1323,-90.8 1323,-90.8 1323,-90.8 1323,-114.61 1323,-114.61"/>
<polygon fill="black" stroke="black" points="1319.5,-114.61 1323,-124.61 1326.5,-114.61 1319.5,-114.61"/>
</g>
<!-- WorkspaceQuizQuestionOptionsService -->
<g id="node27" class="node">
<title>WorkspaceQuizQuestionOptionsService</title>
<ellipse fill="#fdb462" stroke="black" cx="1364" cy="-66.8" rx="167.78" ry="18"/>
<text text-anchor="middle" x="1364" y="-62.6" font-family="Times,serif" font-size="14.00">WorkspaceQuizQuestionOptionsService</text>
</g>
<!-- WorkspaceQuizQuestionOptionsService&#45;&gt;WorkspaceQuizQuestionOptionsModule -->
<g id="edge28" class="edge">
<title>WorkspaceQuizQuestionOptionsService&#45;&gt;WorkspaceQuizQuestionOptionsModule</title>
<path fill="none" stroke="black" d="M1460.17,-81.82C1460.17,-81.82 1460.17,-114.6 1460.17,-114.6"/>
<polygon fill="black" stroke="black" points="1456.67,-114.6 1460.17,-124.6 1463.67,-114.6 1456.67,-114.6"/>
</g>
<!-- WorkspaceQuizQuestionsService -->
<g id="node28" class="node">
<title>WorkspaceQuizQuestionsService</title>
<ellipse fill="#fdb462" stroke="black" cx="1713" cy="-66.8" rx="140.63" ry="18"/>
<text text-anchor="middle" x="1713" y="-62.6" font-family="Times,serif" font-size="14.00">WorkspaceQuizQuestionsService</text>
</g>
<!-- WorkspaceQuizQuestionsService&#45;&gt;WorkspaceQuizQuestionsModule -->
<g id="edge29" class="edge">
<title>WorkspaceQuizQuestionsService&#45;&gt;WorkspaceQuizQuestionsModule</title>
<path fill="none" stroke="black" d="M1752.48,-84.43C1752.48,-84.43 1752.48,-114.74 1752.48,-114.74"/>
<polygon fill="black" stroke="black" points="1748.98,-114.74 1752.48,-124.74 1755.98,-114.74 1748.98,-114.74"/>
</g>
<!-- WorkspacesService -->
<g id="node29" class="node">
<title>WorkspacesService</title>
<ellipse fill="#fdb462" stroke="black" cx="1981" cy="-66.8" rx="87.36" ry="18"/>
<text text-anchor="middle" x="1981" y="-62.6" font-family="Times,serif" font-size="14.00">WorkspacesService</text>
</g>
<!-- WorkspacesService&#45;&gt;WorkspacesModule -->
<g id="edge30" class="edge">
<title>WorkspacesService&#45;&gt;WorkspacesModule</title>
<path fill="none" stroke="black" d="M1948.4,-83.67C1948.4,-83.67 1948.4,-114.65 1948.4,-114.65"/>
<polygon fill="black" stroke="black" points="1944.9,-114.65 1948.4,-124.65 1951.9,-114.65 1944.9,-114.65"/>
</g>
<!-- WorkspaceStudentResultsService -->
<g id="node30" class="node">
<title>WorkspaceStudentResultsService</title>
<ellipse fill="#fdb462" stroke="black" cx="2249" cy="-66.8" rx="141.23" ry="18"/>
<text text-anchor="middle" x="2249" y="-62.6" font-family="Times,serif" font-size="14.00">WorkspaceStudentResultsService</text>
</g>
<!-- WorkspaceStudentResultsService&#45;&gt;WorkspaceStudentResultsModule -->
<g id="edge31" class="edge">
<title>WorkspaceStudentResultsService&#45;&gt;WorkspaceStudentResultsModule</title>
<path fill="none" stroke="black" d="M2167.45,-81.82C2167.45,-81.82 2167.45,-114.6 2167.45,-114.6"/>
<polygon fill="black" stroke="black" points="2163.95,-114.6 2167.45,-124.6 2170.95,-114.6 2163.95,-114.6"/>
</g>
</g>
</svg>
